<!--?xml version="1.0" standalone="no"?-->
              <svg id="sw-js-blob-svg" viewBox="0 0 100 100" xmlns="http://www.w3.org/2000/svg" version="1.1">
                    <defs> 
                        <linearGradient id="sw-gradient" x1="0" x2="1" y1="1" y2="0">
                            <stop id="stop1" stop-color="rgba(2, 62, 138, 1)" offset="0%"></stop>
                            <stop id="stop2" stop-color="rgba(0, 180, 216, 1)" offset="100%"></stop>
                        </linearGradient>
                    </defs>
                <path fill="url(#sw-gradient)" d="M19.6,-21.9C26.4,-17.7,33.5,-12.4,36.1,-5.2C38.7,1.9,36.7,11,32.7,19.6C28.6,28.1,22.3,36.1,14.4,38.5C6.5,40.9,-3,37.8,-12.7,34.4C-22.3,31.1,-32,27.6,-35.2,20.9C-38.4,14.2,-35,4.3,-33,-5.6C-31,-15.5,-30.3,-25.4,-25,-29.9C-19.8,-34.4,-9.9,-33.4,-1.7,-31.4C6.4,-29.3,12.8,-26.1,19.6,-21.9Z" width="100%" height="100%" transform="translate(50 50)" stroke-width="0" style="transition: all 0.3s ease 0s;" stroke="url(#sw-gradient)"></path>
              </svg>