<!--?xml version="1.0" standalone="no"?-->
              <svg id="sw-js-blob-svg" viewBox="0 0 100 100" xmlns="http://www.w3.org/2000/svg" version="1.1">
                    <defs> 
                        <linearGradient id="sw-gradient" x1="0" x2="1" y1="1" y2="0">
                            <stop id="stop1" stop-color="rgba(2, 62, 138, 1)" offset="0%"></stop>
                            <stop id="stop2" stop-color="rgba(0, 180, 216, 1)" offset="100%"></stop>
                        </linearGradient>
                    </defs>
                <path fill="url(#sw-gradient)" d="M25.9,-31C31.4,-26.2,32.2,-16,33.6,-6.2C34.9,3.5,36.8,12.9,33.7,20.6C30.6,28.3,22.6,34.3,13.7,37.3C4.9,40.3,-4.9,40.3,-13.6,37.2C-22.3,34.1,-29.9,27.9,-32.8,20.2C-35.7,12.5,-34,3.4,-31.4,-4.5C-28.8,-12.5,-25.3,-19.3,-20,-24.1C-14.6,-28.9,-7.3,-31.8,1.5,-33.6C10.2,-35.3,20.4,-35.9,25.9,-31Z" width="100%" height="100%" transform="translate(50 50)" stroke-width="0" style="transition: all 0.3s ease 0s;" stroke="url(#sw-gradient)"></path>
              </svg>