<!--?xml version="1.0" standalone="no"?-->
              <svg id="sw-js-blob-svg" viewBox="0 0 100 100" xmlns="http://www.w3.org/2000/svg" version="1.1">
                    <defs> 
                        <linearGradient id="sw-gradient" x1="0" x2="1" y1="1" y2="0">
                            <stop id="stop1" stop-color="rgba(2, 62, 138, 1)" offset="0%"></stop>
                            <stop id="stop2" stop-color="rgba(0, 180, 216, 1)" offset="100%"></stop>
                        </linearGradient>
                    </defs>
                <path fill="url(#sw-gradient)" d="M20.1,-24.2C25.1,-19.7,27.7,-12.5,29.1,-5.1C30.4,2.3,30.5,10,27.9,17.7C25.3,25.4,20.1,33.2,12.8,36.3C5.5,39.4,-3.8,37.8,-13.2,35C-22.5,32.1,-31.8,27.9,-35.2,20.9C-38.6,13.9,-36,4,-32.6,-4C-29.2,-12.1,-24.8,-18.2,-19.2,-22.6C-13.6,-27,-6.8,-29.6,0.3,-30C7.5,-30.4,15,-28.6,20.1,-24.2Z" width="100%" height="100%" transform="translate(50 50)" stroke-width="0" style="transition: all 0.3s ease 0s;" stroke="url(#sw-gradient)"></path>
              </svg>