<!--?xml version="1.0" standalone="no"?-->
              <svg id="sw-js-blob-svg" viewBox="0 0 100 100" xmlns="http://www.w3.org/2000/svg" version="1.1">
                    <defs> 
                        <linearGradient id="sw-gradient" x1="0" x2="1" y1="1" y2="0">
                            <stop id="stop1" stop-color="rgba(2, 62, 138, 1)" offset="0%"></stop>
                            <stop id="stop2" stop-color="rgba(0, 180, 216, 1)" offset="100%"></stop>
                        </linearGradient>
                    </defs>
                <path fill="url(#sw-gradient)" d="M27.6,-32C34.5,-27,38,-17.2,38.3,-7.8C38.6,1.5,35.8,10.3,31.3,18.1C26.8,25.8,20.6,32.6,12.8,35.5C5.1,38.5,-4.1,37.6,-11.6,33.9C-19,30.3,-24.6,23.8,-29.9,16.4C-35.3,8.9,-40.5,0.4,-40.8,-8.8C-41.2,-18.1,-36.6,-28.2,-29,-33C-21.4,-37.9,-10.7,-37.5,-0.2,-37.3C10.3,-37.1,20.6,-37,27.6,-32Z" width="100%" height="100%" transform="translate(50 50)" stroke-width="0" style="transition: all 0.3s ease 0s;" stroke="url(#sw-gradient)"></path>
              </svg>